<?xml version="1.0" encoding="UTF-8"?>
<svg id="Camada_2" data-name="Camada 2" xmlns="http://www.w3.org/2000/svg" viewBox="0 0 622.67 280.95">
  <defs>
    <style>
      .cls-1 {
        fill: #294946;
      }

      .cls-2 {
        fill: #d8690e;
      }

      .cls-3 {
        fill: #4a837a;
      }

      .cls-4 {
        fill: #f2f2f2;
      }

      .cls-5 {
        fill: #5c9991;
      }

      .cls-6 {
        fill: #fa9937;
      }

      .cls-7 {
        fill: #ea781b;
      }
    </style>
  </defs>
  <g id="Camada_1-2" data-name="Camada 1">
    <g>
      <polygon class="cls-1" points="86.79 91.32 7.83 46.81 7.68 233.54 86.79 280.95 86.79 91.32"/>
      <polygon class="cls-5" points="87.02 0 7.83 46.81 87.02 91.56 165.76 46.81 87.02 0"/>
      <polygon class="cls-3" points="86.8 91.32 165.76 46.81 165.91 233.54 86.8 280.95 86.8 91.32"/>
      <g>
        <polygon class="cls-2" points="7.67 119.85 .06 123.93 7.67 128.01 7.67 119.85"/>
        <polyline class="cls-7" points=".06 123.93 86.8 170.48 86.8 206.66 0 158.61 .06 123.93"/>
      </g>
      <g>
        <polygon class="cls-2" points="165.93 119.85 173.54 123.93 165.93 128.01 165.93 119.85"/>
        <polyline class="cls-6" points="173.54 123.93 86.8 170.48 86.8 206.66 173.6 158.61 173.54 123.93"/>
      </g>
      <g>
        <path class="cls-4" d="M222.06,180.45v-101.28h21.48v101.28h-21.48Z"/>
        <path class="cls-4" d="M302.85,101.54c8.27,0,14.92,2.25,19.95,6.75,5.03,4.5,7.55,11.72,7.55,21.65v50.5h-21.13v-45.24c0-5.54-1-9.72-3.01-12.54-2.01-2.82-5.16-4.23-9.46-4.23-6.47,0-10.88,2.19-13.23,6.58-2.36,4.39-3.53,10.71-3.53,18.98v36.44h-21.13v-77.45h16.14l2.84,9.91h1.18c1.66-2.68,3.73-4.85,6.2-6.51,2.47-1.66,5.22-2.89,8.24-3.67,3.02-.78,6.15-1.18,9.39-1.18Z"/>
        <path class="cls-4" d="M413.98,141.58c0,6.47-.87,12.19-2.6,17.18-1.73,4.99-4.25,9.2-7.55,12.64-3.3,3.44-7.27,6.04-11.92,7.79s-9.87,2.63-15.69,2.63c-5.45,0-10.45-.88-15-2.63-4.55-1.75-8.5-4.35-11.85-7.79-3.35-3.44-5.94-7.66-7.76-12.64-1.83-4.99-2.74-10.71-2.74-17.18,0-8.59,1.52-15.87,4.57-21.82,3.05-5.96,7.39-10.48,13.02-13.58,5.63-3.09,12.35-4.64,20.16-4.64,7.25,0,13.68,1.55,19.29,4.64,5.61,3.09,10.02,7.62,13.23,13.58,3.21,5.96,4.81,13.23,4.81,21.82ZM360.43,141.58c0,5.08.55,9.35,1.66,12.82s2.84,6.07,5.2,7.83c2.36,1.76,5.43,2.63,9.21,2.63s6.78-.88,9.11-2.63c2.33-1.75,4.04-4.36,5.13-7.83,1.08-3.46,1.63-7.74,1.63-12.82s-.54-9.39-1.63-12.78c-1.09-3.39-2.81-5.95-5.16-7.66-2.36-1.71-5.43-2.56-9.21-2.56-5.59,0-9.64,1.92-12.16,5.75-2.52,3.83-3.78,9.58-3.78,17.25Z"/>
        <path class="cls-4" d="M441.35,180.45l-29.51-77.45h22.1l14.96,44.13c.83,2.59,1.49,5.31,1.97,8.17.48,2.86.82,5.43,1,7.69h.55c.14-2.45.47-5.06,1-7.83s1.24-5.45,2.11-8.04l14.89-44.13h22.1l-29.51,77.45h-21.68Z"/>
        <path class="cls-4" d="M526.85,101.4c10.39,0,18.36,2.26,23.9,6.79s8.31,11.41,8.31,20.64v51.61h-14.76l-4.09-10.53h-.55c-2.22,2.77-4.48,5.03-6.79,6.79-2.31,1.76-4.97,3.05-7.97,3.88-3,.83-6.65,1.25-10.95,1.25-4.57,0-8.67-.88-12.3-2.63-3.63-1.75-6.48-4.44-8.56-8.07s-3.12-8.23-3.12-13.82c0-8.22,2.89-14.28,8.66-18.19,5.77-3.9,14.43-6.06,25.98-6.48l13.44-.42v-3.39c0-4.06-1.06-7.04-3.19-8.94-2.12-1.89-5.08-2.84-8.87-2.84s-7.41.53-11.02,1.59-7.21,2.4-10.81,4.02l-7-14.27c4.11-2.17,8.72-3.88,13.82-5.13,5.1-1.25,10.38-1.87,15.83-1.87ZM538.07,144.56l-8.17.28c-6.84.18-11.58,1.41-14.24,3.67-2.66,2.26-3.98,5.24-3.98,8.94,0,3.23.95,5.53,2.84,6.89,1.89,1.36,4.36,2.04,7.41,2.04,4.53,0,8.35-1.34,11.47-4.02,3.12-2.68,4.68-6.49,4.68-11.43v-6.37Z"/>
        <path class="cls-4" d="M615.53,101.54c1.06,0,2.3.06,3.71.17,1.41.12,2.55.27,3.43.45l-1.59,19.81c-.69-.23-1.67-.4-2.94-.52-1.27-.12-2.37-.17-3.29-.17-2.73,0-5.37.35-7.93,1.04-2.56.69-4.86,1.81-6.89,3.36-2.03,1.55-3.64,3.58-4.81,6.1-1.18,2.52-1.77,5.6-1.77,9.25v39.42h-21.13v-77.45h16l3.12,13.02h1.04c1.52-2.63,3.43-5.05,5.71-7.24,2.29-2.19,4.9-3.95,7.83-5.27,2.93-1.32,6.11-1.97,9.53-1.97Z"/>
      </g>
      <g>
        <path class="cls-4" d="M235.96,224.85l-3-7.74h-9.78l-2.99,7.74h-2.87l9.55-24.5h2.55l9.48,24.5h-2.94ZM232.1,214.59l-2.85-7.69c-.07-.2-.17-.53-.33-.98s-.3-.93-.46-1.42c-.16-.49-.28-.88-.38-1.18-.11.46-.23.91-.36,1.36-.13.45-.25.87-.38,1.25-.12.38-.23.71-.32.98l-2.9,7.69h7.98Z"/>
        <path class="cls-4" d="M252.32,219.84c0,1.17-.29,2.15-.88,2.95-.58.8-1.42,1.39-2.5,1.79-1.08.4-2.38.6-3.88.6-1.28,0-2.39-.1-3.32-.3s-1.75-.48-2.45-.85v-2.55c.75.37,1.64.7,2.67,1s2.09.45,3.17.45c1.58,0,2.73-.26,3.44-.77.71-.51,1.07-1.21,1.07-2.09,0-.5-.14-.94-.43-1.33-.28-.38-.76-.76-1.43-1.12-.67-.36-1.59-.76-2.77-1.19-1.17-.44-2.18-.89-3.03-1.33-.85-.44-1.51-.98-1.97-1.61-.46-.63-.69-1.46-.69-2.47,0-1.55.62-2.73,1.88-3.56s2.9-1.24,4.93-1.24c1.1,0,2.13.11,3.1.33.96.22,1.86.51,2.7.88l-.93,2.22c-.76-.32-1.56-.59-2.42-.82-.86-.22-1.73-.33-2.62-.33-1.28,0-2.26.21-2.95.63-.68.42-1.03,1-1.03,1.74,0,.57.16,1.04.48,1.4.32.37.83.71,1.53,1.03.7.32,1.62.7,2.77,1.13,1.15.42,2.14.86,2.97,1.31.83.45,1.48,1,1.93,1.64.45.64.68,1.46.68,2.46Z"/>
        <path class="cls-4" d="M267.24,219.84c0,1.17-.29,2.15-.88,2.95-.58.8-1.42,1.39-2.5,1.79-1.08.4-2.38.6-3.88.6-1.28,0-2.39-.1-3.32-.3s-1.75-.48-2.45-.85v-2.55c.75.37,1.64.7,2.67,1s2.09.45,3.17.45c1.58,0,2.73-.26,3.44-.77.71-.51,1.07-1.21,1.07-2.09,0-.5-.14-.94-.43-1.33-.28-.38-.76-.76-1.43-1.12-.67-.36-1.59-.76-2.77-1.19-1.17-.44-2.18-.89-3.03-1.33-.85-.44-1.51-.98-1.97-1.61-.46-.63-.69-1.46-.69-2.47,0-1.55.62-2.73,1.88-3.56s2.9-1.24,4.93-1.24c1.1,0,2.13.11,3.1.33.96.22,1.86.51,2.7.88l-.93,2.22c-.76-.32-1.56-.59-2.42-.82-.86-.22-1.73-.33-2.62-.33-1.28,0-2.26.21-2.95.63-.68.42-1.03,1-1.03,1.74,0,.57.16,1.04.48,1.4.32.37.83.71,1.53,1.03.7.32,1.62.7,2.77,1.13,1.15.42,2.14.86,2.97,1.31.83.45,1.48,1,1.93,1.64.45.64.68,1.46.68,2.46Z"/>
        <path class="cls-4" d="M277.37,206.22c1.56,0,2.89.34,4.01,1.03,1.11.69,1.96,1.66,2.55,2.9.59,1.24.88,2.69.88,4.35v1.72h-12.63c.03,2.15.57,3.78,1.6,4.91,1.03,1.12,2.49,1.69,4.37,1.69,1.16,0,2.18-.11,3.07-.32.89-.21,1.81-.52,2.77-.93v2.44c-.92.41-1.84.71-2.75.9-.91.19-1.98.28-3.21.28-1.76,0-3.29-.36-4.6-1.08-1.31-.72-2.32-1.77-3.05-3.16s-1.08-3.09-1.08-5.11.33-3.67.99-5.12c.66-1.44,1.6-2.55,2.8-3.33,1.21-.78,2.63-1.17,4.26-1.17ZM277.34,208.49c-1.48,0-2.66.48-3.54,1.45s-1.4,2.32-1.57,4.06h9.68c-.01-1.09-.18-2.05-.51-2.88-.33-.83-.83-1.47-1.49-1.94-.67-.46-1.52-.69-2.57-.69Z"/>
        <path class="cls-4" d="M299.99,219.84c0,1.17-.29,2.15-.88,2.95-.58.8-1.42,1.39-2.5,1.79-1.08.4-2.38.6-3.88.6-1.28,0-2.39-.1-3.32-.3s-1.75-.48-2.45-.85v-2.55c.75.37,1.64.7,2.67,1s2.09.45,3.17.45c1.58,0,2.73-.26,3.44-.77.71-.51,1.07-1.21,1.07-2.09,0-.5-.14-.94-.43-1.33-.28-.38-.76-.76-1.43-1.12-.67-.36-1.59-.76-2.77-1.19-1.17-.44-2.18-.89-3.03-1.33-.85-.44-1.51-.98-1.97-1.61-.46-.63-.69-1.46-.69-2.47,0-1.55.62-2.73,1.88-3.56s2.9-1.24,4.93-1.24c1.1,0,2.13.11,3.1.33.96.22,1.86.51,2.7.88l-.93,2.22c-.76-.32-1.56-.59-2.42-.82-.86-.22-1.73-.33-2.62-.33-1.28,0-2.26.21-2.95.63-.68.42-1.03,1-1.03,1.74,0,.57.16,1.04.48,1.4.32.37.83.71,1.53,1.03.7.32,1.62.7,2.77,1.13,1.15.42,2.14.86,2.97,1.31.83.45,1.48,1,1.93,1.64.45.64.68,1.46.68,2.46Z"/>
        <path class="cls-4" d="M314.91,219.84c0,1.17-.29,2.15-.88,2.95-.58.8-1.42,1.39-2.5,1.79-1.08.4-2.38.6-3.88.6-1.28,0-2.39-.1-3.32-.3s-1.75-.48-2.45-.85v-2.55c.75.37,1.64.7,2.67,1s2.09.45,3.17.45c1.58,0,2.73-.26,3.44-.77.71-.51,1.07-1.21,1.07-2.09,0-.5-.14-.94-.43-1.33-.28-.38-.76-.76-1.43-1.12-.67-.36-1.59-.76-2.77-1.19-1.17-.44-2.18-.89-3.03-1.33-.85-.44-1.51-.98-1.97-1.61-.46-.63-.69-1.46-.69-2.47,0-1.55.62-2.73,1.88-3.56s2.9-1.24,4.93-1.24c1.1,0,2.13.11,3.1.33.96.22,1.86.51,2.7.88l-.93,2.22c-.76-.32-1.56-.59-2.42-.82-.86-.22-1.73-.33-2.62-.33-1.28,0-2.26.21-2.95.63-.68.42-1.03,1-1.03,1.74,0,.57.16,1.04.48,1.4.32.37.83.71,1.53,1.03.7.32,1.62.7,2.77,1.13,1.15.42,2.14.86,2.97,1.31.83.45,1.48,1,1.93,1.64.45.64.68,1.46.68,2.46Z"/>
        <path class="cls-4" d="M333.77,215.67c0,1.5-.2,2.84-.58,4.02-.39,1.18-.95,2.18-1.69,2.99-.73.81-1.62,1.43-2.66,1.86-1.04.43-2.22.64-3.53.64-1.22,0-2.35-.21-3.36-.64-1.02-.43-1.9-1.05-2.64-1.86-.74-.81-1.31-1.81-1.72-2.99s-.61-2.52-.61-4.02c0-2,.34-3.71,1.02-5.12.68-1.41,1.65-2.48,2.91-3.22,1.26-.74,2.77-1.11,4.51-1.11s3.13.37,4.38,1.12c1.25.75,2.22,1.82,2.92,3.23.7,1.41,1.04,3.11,1.04,5.1ZM319.85,215.67c0,1.47.19,2.74.58,3.82s.99,1.91,1.8,2.5c.81.59,1.86.88,3.14.88s2.31-.29,3.13-.88c.82-.59,1.42-1.42,1.81-2.5s.58-2.35.58-3.82-.19-2.72-.58-3.78-.99-1.88-1.8-2.46c-.81-.58-1.86-.87-3.15-.87-1.9,0-3.3.63-4.18,1.89-.88,1.26-1.33,3-1.33,5.22Z"/>
        <path class="cls-4" d="M345.51,206.22c.37,0,.75.02,1.15.06.4.04.76.09,1.07.16l-.35,2.57c-.3-.08-.63-.14-1-.18-.37-.04-.71-.07-1.04-.07-.73,0-1.43.15-2.08.44-.65.29-1.22.72-1.71,1.27-.49.55-.87,1.21-1.15,1.99s-.42,1.63-.42,2.58v9.81h-2.79v-18.29h2.3l.3,3.37h.12c.38-.68.83-1.3,1.37-1.86.53-.56,1.15-1.01,1.86-1.34.71-.33,1.49-.5,2.36-.5Z"/>
        <path class="cls-4" d="M351.22,199.71c.46,0,.85.15,1.18.44.33.29.49.75.49,1.38s-.17,1.07-.49,1.37c-.33.3-.72.45-1.18.45-.48,0-.88-.15-1.19-.45-.32-.3-.48-.76-.48-1.37s.16-1.08.48-1.38c.32-.29.71-.44,1.19-.44ZM352.57,206.56v18.29h-2.77v-18.29h2.77Z"/>
        <path class="cls-4" d="M363.9,206.26c2.18,0,3.8.49,4.86,1.47,1.06.98,1.58,2.54,1.58,4.69v12.43h-2.02l-.53-2.7h-.13c-.51.67-1.05,1.23-1.6,1.68-.56.45-1.2.79-1.93,1.02-.73.23-1.62.34-2.68.34-1.11,0-2.1-.2-2.96-.58-.86-.39-1.54-.98-2.04-1.77s-.74-1.79-.74-3c0-1.83.72-3.23,2.17-4.21s3.65-1.51,6.61-1.6l3.15-.13v-1.12c0-1.58-.34-2.69-1.02-3.32-.68-.63-1.64-.95-2.87-.95-.96,0-1.87.14-2.74.42-.87.28-1.69.61-2.47.99l-.85-2.1c.82-.42,1.77-.78,2.84-1.08,1.07-.3,2.19-.45,3.37-.45ZM367.61,215.84l-2.79.12c-2.28.09-3.89.46-4.82,1.12s-1.4,1.58-1.4,2.79c0,1.05.32,1.82.95,2.32.63.5,1.47.75,2.52.75,1.62,0,2.95-.45,3.99-1.35,1.03-.9,1.55-2.25,1.55-4.06v-1.69Z"/>
        <path class="cls-4" d="M396.2,224.85h-13.59v-24.4h13.59v2.5h-10.75v7.89h10.13v2.47h-10.13v9.03h10.75v2.5Z"/>
        <path class="cls-4" d="M419.69,206.22c2.01,0,3.53.53,4.56,1.58,1.02,1.05,1.54,2.74,1.54,5.07v11.98h-2.74v-11.85c0-1.48-.32-2.59-.96-3.33-.64-.74-1.59-1.11-2.85-1.11-1.77,0-3.05.51-3.86,1.54-.8,1.02-1.2,2.53-1.2,4.52v10.23h-2.75v-11.85c0-.99-.14-1.81-.43-2.47-.28-.66-.71-1.15-1.27-1.48-.56-.33-1.27-.49-2.13-.49-1.21,0-2.19.25-2.92.75-.73.5-1.27,1.24-1.59,2.23s-.49,2.19-.49,3.63v9.68h-2.77v-18.29h2.24l.42,2.59h.15c.37-.63.83-1.17,1.39-1.6.56-.43,1.18-.76,1.87-.99.69-.22,1.42-.33,2.2-.33,1.39,0,2.56.26,3.5.78.94.52,1.62,1.3,2.04,2.36h.15c.6-1.06,1.42-1.84,2.47-2.36,1.05-.52,2.19-.78,3.44-.78Z"/>
        <path class="cls-4" d="M438.7,206.22c2.28,0,4.1.78,5.46,2.35,1.36,1.57,2.04,3.93,2.04,7.08,0,2.08-.31,3.83-.93,5.24-.62,1.41-1.5,2.48-2.63,3.21-1.13.72-2.46,1.08-4,1.08-.97,0-1.82-.13-2.55-.38s-1.36-.6-1.89-1.04-.96-.91-1.3-1.42h-.2c.03.43.08.96.12,1.57s.08,1.15.08,1.6v7.51h-2.79v-26.47h2.29l.37,2.7h.13c.36-.56.79-1.07,1.3-1.53.51-.46,1.14-.83,1.88-1.1.74-.27,1.62-.41,2.63-.41ZM438.21,208.56c-1.27,0-2.29.25-3.06.73-.77.49-1.34,1.22-1.69,2.2s-.54,2.19-.57,3.66v.53c0,1.55.17,2.85.51,3.92.34,1.07.9,1.88,1.69,2.44.78.56,1.84.83,3.16.83,1.13,0,2.08-.31,2.84-.92.76-.61,1.32-1.47,1.69-2.56.37-1.1.56-2.36.56-3.78,0-2.16-.42-3.88-1.26-5.15-.84-1.27-2.13-1.91-3.86-1.91Z"/>
        <path class="cls-4" d="M457.96,206.22c.37,0,.75.02,1.15.06.4.04.76.09,1.07.16l-.35,2.57c-.3-.08-.63-.14-1-.18-.37-.04-.71-.07-1.04-.07-.73,0-1.43.15-2.08.44-.65.29-1.22.72-1.71,1.27-.49.55-.87,1.21-1.15,1.99s-.42,1.63-.42,2.58v9.81h-2.79v-18.29h2.3l.3,3.37h.12c.38-.68.83-1.3,1.37-1.86.53-.56,1.15-1.01,1.86-1.34.71-.33,1.49-.5,2.36-.5Z"/>
        <path class="cls-4" d="M469.29,206.22c1.56,0,2.89.34,4.01,1.03,1.11.69,1.96,1.66,2.55,2.9.59,1.24.88,2.69.88,4.35v1.72h-12.63c.03,2.15.57,3.78,1.6,4.91,1.03,1.12,2.49,1.69,4.37,1.69,1.16,0,2.18-.11,3.07-.32.89-.21,1.81-.52,2.77-.93v2.44c-.92.41-1.84.71-2.75.9-.91.19-1.98.28-3.21.28-1.76,0-3.29-.36-4.6-1.08-1.31-.72-2.32-1.77-3.05-3.16s-1.08-3.09-1.08-5.11.33-3.67.99-5.12c.66-1.44,1.6-2.55,2.8-3.33,1.21-.78,2.63-1.17,4.26-1.17ZM469.26,208.49c-1.48,0-2.66.48-3.54,1.45s-1.4,2.32-1.57,4.06h9.68c-.01-1.09-.18-2.05-.51-2.88-.33-.83-.83-1.47-1.49-1.94-.67-.46-1.52-.69-2.57-.69Z"/>
        <path class="cls-4" d="M491.91,219.84c0,1.17-.29,2.15-.88,2.95-.58.8-1.42,1.39-2.5,1.79-1.08.4-2.38.6-3.88.6-1.28,0-2.39-.1-3.32-.3s-1.75-.48-2.45-.85v-2.55c.75.37,1.64.7,2.67,1s2.09.45,3.17.45c1.58,0,2.73-.26,3.44-.77.71-.51,1.07-1.21,1.07-2.09,0-.5-.14-.94-.43-1.33-.28-.38-.76-.76-1.43-1.12-.67-.36-1.59-.76-2.77-1.19-1.17-.44-2.18-.89-3.03-1.33-.85-.44-1.51-.98-1.97-1.61-.46-.63-.69-1.46-.69-2.47,0-1.55.62-2.73,1.88-3.56s2.9-1.24,4.93-1.24c1.1,0,2.13.11,3.1.33.96.22,1.86.51,2.7.88l-.93,2.22c-.76-.32-1.56-.59-2.42-.82-.86-.22-1.73-.33-2.62-.33-1.28,0-2.26.21-2.95.63-.68.42-1.03,1-1.03,1.74,0,.57.16,1.04.48,1.4.32.37.83.71,1.53,1.03.7.32,1.62.7,2.77,1.13,1.15.42,2.14.86,2.97,1.31.83.45,1.48,1,1.93,1.64.45.64.68,1.46.68,2.46Z"/>
        <path class="cls-4" d="M501.84,206.26c2.18,0,3.8.49,4.86,1.47,1.06.98,1.58,2.54,1.58,4.69v12.43h-2.02l-.53-2.7h-.13c-.51.67-1.05,1.23-1.6,1.68-.56.45-1.2.79-1.93,1.02-.73.23-1.62.34-2.68.34-1.11,0-2.1-.2-2.96-.58-.86-.39-1.54-.98-2.04-1.77s-.74-1.79-.74-3c0-1.83.72-3.23,2.17-4.21s3.65-1.51,6.61-1.6l3.15-.13v-1.12c0-1.58-.34-2.69-1.02-3.32-.68-.63-1.64-.95-2.87-.95-.96,0-1.87.14-2.74.42-.87.28-1.69.61-2.47.99l-.85-2.1c.82-.42,1.77-.78,2.84-1.08,1.07-.3,2.19-.45,3.37-.45ZM505.55,215.84l-2.79.12c-2.28.09-3.89.46-4.82,1.12s-1.4,1.58-1.4,2.79c0,1.05.32,1.82.95,2.32.63.5,1.47.75,2.52.75,1.62,0,2.95-.45,3.99-1.35,1.03-.9,1.55-2.25,1.55-4.06v-1.69Z"/>
        <path class="cls-4" d="M520.94,206.22c.37,0,.75.02,1.15.06.4.04.76.09,1.07.16l-.35,2.57c-.3-.08-.63-.14-1-.18-.37-.04-.71-.07-1.04-.07-.73,0-1.43.15-2.08.44-.65.29-1.22.72-1.71,1.27-.49.55-.87,1.21-1.15,1.99s-.42,1.63-.42,2.58v9.81h-2.79v-18.29h2.3l.3,3.37h.12c.38-.68.83-1.3,1.37-1.86.53-.56,1.15-1.01,1.86-1.34.71-.33,1.49-.5,2.36-.5Z"/>
        <path class="cls-4" d="M526.65,199.71c.46,0,.85.15,1.18.44.33.29.49.75.49,1.38s-.17,1.07-.49,1.37c-.33.3-.72.45-1.18.45-.48,0-.88-.15-1.19-.45-.32-.3-.48-.76-.48-1.37s.16-1.08.48-1.38c.32-.29.71-.44,1.19-.44ZM528,206.56v18.29h-2.77v-18.29h2.77Z"/>
        <path class="cls-4" d="M539.33,206.26c2.18,0,3.8.49,4.86,1.47,1.06.98,1.58,2.54,1.58,4.69v12.43h-2.02l-.53-2.7h-.13c-.51.67-1.05,1.23-1.6,1.68-.56.45-1.2.79-1.93,1.02-.73.23-1.62.34-2.68.34-1.11,0-2.1-.2-2.96-.58-.86-.39-1.54-.98-2.04-1.77s-.74-1.79-.74-3c0-1.83.72-3.23,2.17-4.21s3.65-1.51,6.61-1.6l3.15-.13v-1.12c0-1.58-.34-2.69-1.02-3.32-.68-.63-1.64-.95-2.87-.95-.96,0-1.87.14-2.74.42-.87.28-1.69.61-2.47.99l-.85-2.1c.82-.42,1.77-.78,2.84-1.08,1.07-.3,2.19-.45,3.37-.45ZM543.04,215.84l-2.79.12c-2.28.09-3.89.46-4.82,1.12s-1.4,1.58-1.4,2.79c0,1.05.32,1.82.95,2.32.63.5,1.47.75,2.52.75,1.62,0,2.95-.45,3.99-1.35,1.03-.9,1.55-2.25,1.55-4.06v-1.69Z"/>
        <path class="cls-4" d="M552.9,224.85h-2.79v-25.97h2.79v25.97Z"/>
      </g>
    </g>
  </g>
</svg>